<svg width="38" height="40" viewBox="0 0 38 40" fill="none" xmlns="http://www.w3.org/2000/svg">
<path opacity="0.4" d="M24.4785 5.66848C24.5735 6.21342 23.8889 6.62309 23.1714 6.55584C16.4719 5.92815 7.598 9.54815 4.8324 14.2403C4.53208 14.7498 3.69882 14.9857 3.13403 14.6288C2.02669 13.9289 1.07534 13.0706 0.491598 12.0771C-0.108065 11.0565 -0.298023 9.7985 0.727647 8.74191C1.45348 7.99417 2.6275 7.52313 4.13529 7.28176C3.134 4.19964 4.27129 1.60353 7.01712 0.500071C9.76475 -0.604117 13.2344 0.143991 16.0255 2.50959C17.1529 1.69542 18.3314 1.21977 19.55 1.18135C21.2789 1.12684 22.5267 1.95563 23.2833 2.90704C23.9081 3.69244 24.3018 4.65697 24.4785 5.66848Z" fill="#FE9F6B"/>
<path d="M12.6522 27.4659C12.0591 27.7044 11.3243 27.5803 10.93 27.1674C8.12947 24.2355 6.14765 21.5151 5.74368 19.9186C5.12681 17.4554 4.96746 13.3609 13.7125 9.84311C22.4604 6.32532 26.8255 8.73033 29.1541 10.5049C29.7652 10.9711 30.4311 11.7033 31.1143 12.6357C31.4752 13.1286 31.2126 13.7443 30.5567 14.0081L24.0514 16.6245C23.0518 17.0268 22.6701 17.9686 23.199 18.7285C23.7281 19.4883 24.9672 19.7785 25.9668 19.3765L32.0522 16.9288C32.7711 16.6399 33.6615 16.8889 33.9425 17.4688C34.9932 19.6367 35.9565 22.0832 36.6803 24.5427C36.813 24.9935 36.5271 25.4539 35.9901 25.6699L31.0826 27.6442C30.083 28.0464 29.7015 28.9883 30.2307 29.7482C30.7596 30.508 31.9989 30.798 32.9986 30.3959L35.8928 29.2316C36.7333 28.8933 37.7597 29.2961 37.8454 30.0159C38.3828 34.5323 37.5893 38.3428 34.3575 39.5065C29.7302 41.5711 21.7117 36.8326 15.3259 31.3322C14.7498 30.836 14.9475 30.0651 15.7172 29.7556L20.1613 27.9688C21.1612 27.5668 21.5429 26.6249 21.014 25.8648C20.4854 25.105 19.2463 24.8148 18.2464 25.2166L12.6522 27.4659Z" fill="#FE9F6B"/>
</svg>
