<svg width="201" height="144" viewBox="0 0 201 144" fill="none" xmlns="http://www.w3.org/2000/svg">
<path d="M6.59935 12.5656C33.3768 1.34927 35.1069 45.1067 42.2772 57.7626C46.0569 64.4268 51.4858 71.3021 58.9839 74.0065C85.0853 83.4317 125.779 31.8604 135.573 74.962C140.474 96.5434 134.39 118.84 154.353 134.897C168.006 145.88 184.953 145.703 198.5 135.501C203.945 131.398 197.064 123.321 191.664 127.442C170.599 143.529 152.677 116.175 148.015 99.7593C145.682 91.5466 146.954 83.3906 146.15 75.1116C145.413 67.523 144.544 61.1424 139.65 54.9868C129.931 42.7584 112.66 42.0169 99.2082 47.6591C95.9269 49.0314 93.0643 51.3305 89.8902 52.867C81.3853 56.9784 64.4056 62.6844 54.9555 57.9139C46.4368 53.6176 43.8971 22.6939 37.8595 13.9433C29.5998 1.97479 16.951 -3.21161 3.48419 2.46899C-2.73715 5.08846 0.312146 15.1968 6.59935 12.5656Z" fill="#49AC9B"/>
</svg>
