<svg width="1440" height="951" viewBox="0 0 1440 951" fill="none" xmlns="http://www.w3.org/2000/svg">
<path opacity="0.4" d="M-132.333 927.836C-166.242 817.434 -199.341 698.273 -170.875 582.675C-135.855 440.349 -21.8702 363.418 122.45 369.743C335.279 379.094 505.647 543.161 705.199 601.394C1119.87 722.434 1403.46 400.024 1488.9 24.4651C1494.16 1.3598 1458.69 -9.31055 1453.39 13.9757C1400.34 247.22 1278.77 488.674 1036.54 568.994C780.232 653.964 563.335 491.817 341.844 391.094C205.245 328.962 25.0637 295.008 -101.772 398.208C-265.091 531.085 -221.993 762.787 -168.234 936.94C-161.207 959.651 -125.325 950.638 -132.333 927.836Z" fill="#697DDB"/>
</svg>
